<?xml version="1.0" encoding="utf-8"?>
<!-- Generator: Adobe Illustrator 19.2.1, SVG Export Plug-In . SVG Version: 6.00 Build 0)  -->
<svg version="1.1" id="Layer_3" xmlns="http://www.w3.org/2000/svg" xmlns:xlink="http://www.w3.org/1999/xlink" x="0px" y="0px"
	 viewBox="0 0 448 464" style="enable-background:new 0 0 448 464;" xml:space="preserve">
<style type="text/css">
	.st0{fill:#595959;}
	.st1{fill:#DD1667;stroke:#212226;stroke-width:20;stroke-miterlimit:10;}
	.st2{fill:#DD1667;stroke:#212226;stroke-width:17;stroke-miterlimit:10;}
</style>
<path class="st0" d="M248,104h32v64h-32V104z"/>
<path class="st0" d="M328,104h32v64h-32V104z"/>
<path class="st0" d="M288,144h32v-16h-32V144z"/>
<path class="st0" d="M256,176h16v24h-16V176z"/>
<path class="st0" d="M336,176h16v24h-16V176z"/>
<path class="st0" d="M395.2,184.3v28.4H140v-28.4H395.2z M-1.8,70.9h56.7v56.7H-1.8V70.9z M125.8,127.6H69.1V70.9h56.7V127.6z
	 M-1.8,141.8h127.6V156H-1.8V141.8z M125.8,226.9H69.1v-56.7h56.7V226.9z M-1.8,170.1h56.7v56.7H-1.8V170.1z M-1.8,241h127.6v14.2
	H-1.8V241z M-16,28.4V0h156v28.4H-16z M125.8,42.5v14.2H-1.8V42.5H125.8z M-1.8,269.4h127.6v113.4H97.4V319c0-3.9-3.2-7.1-7.1-7.1
	H33.6c-3.9,0-7.1,3.2-7.1,7.1v63.8H-1.8V269.4z M83.2,382.8H40.7v-56.7h42.5V382.8z M395.2,411.2H-16V397h411.2V411.2z M140,382.8
	v-28.4h241v28.4H140z M232.1,283.6c3.9,0,7.1,3.2,7.1,7.1v7.1h-42.5v-7.1c0-3.9,3.2-7.1,7.1-7.1H232.1z M196.7,311.9h42.5v28.4
	h-42.5V311.9z M317.2,283.6c3.9,0,7.1,3.2,7.1,7.1v7.1h-42.5v-7.1c0-3.9,3.2-7.1,7.1-7.1H317.2z M281.7,311.9h42.5v28.4h-42.5V311.9
	z M381,340.3h-42.5v-49.6c0-11.7-9.5-21.3-21.3-21.3h-7.1v-14.2h-14.2v14.2h-7.1c-11.7,0-21.3,9.5-21.3,21.3v49.6h-14.2v-49.6
	c0-11.7-9.5-21.3-21.3-21.3H225v-14.2h-14.2v14.2h-7.1c-11.7,0-21.3,9.5-21.3,21.3v49.6H140V226.9h241V340.3z"/>
<path class="st1" d="M285.4,332.2c0,23.8,10.5,45,27.2,59.5l49.3,49.3c1.2,1.2,3.2,1.2,4.5,0l49.9-49.9c2.4-2.1,4.6-4.3,6.7-6.7
	l0.4-0.4l0,0c13.9-15.8,21.5-37.3,19-60.5c-3.9-36.2-33-65.4-69.2-69.5C325.6,248.7,285.4,285.8,285.4,332.2z M342.9,332.2
	c0-11.7,9.5-21.2,21.2-21.2c11.7,0,21.2,9.5,21.2,21.2c0,11.7-9.5,21.2-21.2,21.2C352.4,353.4,342.9,343.9,342.9,332.2z"/>
<circle class="st2" cx="364.1" cy="332.7" r="29.9"/>
</svg>
