<?xml version="1.0" encoding="utf-8"?>
<!-- Generator: Adobe Illustrator 19.2.1, SVG Export Plug-In . SVG Version: 6.00 Build 0)  -->
<svg version="1.1" id="OBJECTS" xmlns="http://www.w3.org/2000/svg" xmlns:xlink="http://www.w3.org/1999/xlink" x="0px" y="0px"
	 viewBox="0 0 61.4 76.6" style="enable-background:new 0 0 61.4 76.6;" xml:space="preserve">
<style type="text/css">
	.st0{fill:#EF0060;}
	.st1{opacity:0.1;fill:#EF0060;}
</style>
<path class="st0" d="M2.9,27.8c0,8.4,3.7,15.9,9.6,21l17.4,17.4c0.4,0.4,1.1,0.4,1.6,0l17.6-17.6c0.8-0.7,1.6-1.5,2.4-2.4l0.1-0.1
	l0,0c4.9-5.6,7.6-13.2,6.7-21.4C56.9,11.9,46.7,1.6,33.9,0.2C17.1-1.7,2.9,11.4,2.9,27.8z M19.7,27.8c0-6.1,4.9-11,11-11
	c6.1,0,11,4.9,11,11c0,6.1-4.9,11-11,11C24.6,38.8,19.7,33.8,19.7,27.8z M23.2,27.8c0-4.1,3.3-7.5,7.5-7.5c4.1,0,7.5,3.3,7.5,7.5
	c0,4.1-3.3,7.5-7.5,7.5C26.6,35.3,23.2,31.9,23.2,27.8z"/>
<ellipse class="st1" cx="30.7" cy="71.1" rx="30.7" ry="5.5"/>
</svg>
