<?xml version="1.0" encoding="utf-8"?>
<!-- Generator: Adobe Illustrator 19.2.1, SVG Export Plug-In . SVG Version: 6.00 Build 0)  -->
<svg version="1.1" id="Layer_1" xmlns="http://www.w3.org/2000/svg" xmlns:xlink="http://www.w3.org/1999/xlink" x="0px" y="0px"
	 viewBox="0 0 512 394.3" style="enable-background:new 0 0 512 394.3;" xml:space="preserve">
<style type="text/css">
	.st0{fill:#FFFFFF;}
</style>
<g>
	<g>
		<path class="st0" d="M0,197.2c0,11.4,9.3,20.7,20.7,20.7h470.6c11.4,0,20.7-9.3,20.7-20.7s-9.3-20.7-20.7-20.7H20.7
			C9.3,176.5,0,185.7,0,197.2z"/>
	</g>
</g>
<g>
	<g>
		<path class="st0" d="M300.2,359c-8.1,8.1-8.1,21.2,0,29.2c4,4,9.3,6.1,14.6,6.1s10.6-2,14.6-6.1l176.5-176.5
			c8.1-8.1,8.1-21.2,0-29.2L329.5,6.1c-8.1-8.1-21.2-8.1-29.2,0c-8.1,8.1-8.1,21.2,0,29.2l161.9,161.9L300.2,359z"/>
	</g>
</g>
</svg>
